<svg width="20" height="22" viewBox="0 0 20 22" fill="none" xmlns="http://www.w3.org/2000/svg">
<g clip-path="url(#clip0_60_63)">
<path d="M19.5662 10.0632C19.9599 9.66273 20.0988 9.07501 19.929 8.52868C19.7588 7.98234 19.3155 7.59234 18.7708 7.50957L13.9282 6.77513C13.722 6.74378 13.5438 6.60876 13.4517 6.41355L11.2867 1.83386C11.0436 1.31929 10.5502 0.999512 10.0003 0.999512C9.45086 0.999512 8.95747 1.31929 8.71437 1.83386L6.54898 6.41397C6.45686 6.60918 6.27825 6.7442 6.072 6.77555L1.22939 7.50999C0.685139 7.59234 0.241407 7.98276 0.0712024 8.52909C-0.0986013 9.07543 0.0403654 9.66315 0.434038 10.0636L3.93784 13.6284C4.08722 13.7805 4.1557 13.9996 4.12046 14.2136L3.29387 19.2472C3.22058 19.6903 3.33192 20.1213 3.60665 20.4611C4.03356 20.9908 4.77885 21.1521 5.37477 20.8252L9.70556 18.4484C9.88658 18.3494 10.1145 18.3502 10.2951 18.4484L14.6263 20.8252C14.8369 20.941 15.0616 20.9995 15.2935 20.9995C15.7168 20.9995 16.1181 20.8031 16.394 20.4611C16.6691 20.1213 16.7801 19.6895 16.7068 19.2472L15.8798 14.2136C15.8445 13.9991 15.913 13.7805 16.0624 13.6284L19.5662 10.0632Z" fill="black"/>
</g>
<defs>
<clipPath id="clip0_60_63">
<rect width="20" height="20.8753" fill="white" transform="translate(0.000366211 0.562012)"/>
</clipPath>
</defs>
</svg>
