<svg width="25" height="20" viewBox="0 0 25 20" fill="none" xmlns="http://www.w3.org/2000/svg">
<path d="M21.8838 9.98459V4.03639H24.2204V11.1742H21.8838M21.8838 15.9328H24.2204V13.5535H21.8838M10.2009 11.1742C13.3202 11.1742 19.5472 12.7683 19.5472 15.9328V19.5017H0.854614V15.9328C0.854614 12.7683 7.08158 11.1742 10.2009 11.1742ZM10.2009 0.467468C11.4403 0.467468 12.6289 0.968815 13.5053 1.86122C14.3817 2.75362 14.8741 3.96398 14.8741 5.22603C14.8741 6.48808 14.3817 7.69844 13.5053 8.59084C12.6289 9.48324 11.4403 9.98459 10.2009 9.98459C8.96151 9.98459 7.77288 9.48324 6.8965 8.59084C6.02011 7.69844 5.52776 6.48808 5.52776 5.22603C5.52776 3.96398 6.02011 2.75362 6.8965 1.86122C7.77288 0.968815 8.96151 0.467468 10.2009 0.467468ZM10.2009 13.4345C6.7311 13.4345 3.07436 15.1714 3.07436 15.9328V17.2414H17.3275V15.9328C17.3275 15.1714 13.6707 13.4345 10.2009 13.4345ZM10.2009 2.72778C9.55023 2.72778 8.92619 2.99099 8.46609 3.4595C8.00599 3.92801 7.74751 4.56345 7.74751 5.22603C7.74751 5.8886 8.00599 6.52404 8.46609 6.99255C8.92619 7.46107 9.55023 7.72427 10.2009 7.72427C10.8516 7.72427 11.4756 7.46107 11.9357 6.99255C12.3958 6.52404 12.6543 5.8886 12.6543 5.22603C12.6543 4.56345 12.3958 3.92801 11.9357 3.4595C11.4756 2.99099 10.8516 2.72778 10.2009 2.72778Z" fill="black"/>
</svg>
