<svg width="26" height="23" viewBox="0 0 26 23" fill="none" xmlns="http://www.w3.org/2000/svg">
<path d="M24.0928 16.2794H7.78703L8.60574 14.5814L22.209 14.5563C22.669 14.5563 23.0633 14.2217 23.1454 13.7589L25.0293 3.02146C25.0786 2.73985 25.0047 2.44988 24.8239 2.22961C24.7346 2.1212 24.6232 2.03388 24.4974 1.9737C24.3717 1.91351 24.2345 1.88191 24.0956 1.88108L6.79034 1.82253L6.64248 1.11432C6.54938 0.662628 6.1496 0.333618 5.69507 0.333618H1.46459C1.20824 0.333618 0.962388 0.437315 0.78112 0.621896C0.599852 0.806477 0.498016 1.05682 0.498016 1.31786C0.498016 1.5789 0.599852 1.82924 0.78112 2.01382C0.962388 2.1984 1.20824 2.3021 1.46459 2.3021H4.91195L5.55816 5.43048L7.14904 13.2737L5.10088 16.6782C4.99452 16.8243 4.93046 16.9979 4.91594 17.1792C4.90142 17.3606 4.93703 17.5424 5.01874 17.7042C5.18303 18.036 5.51435 18.2451 5.88126 18.2451H7.60084C7.23424 18.7409 7.03624 19.3449 7.03677 19.9655C7.03677 21.5436 8.29633 22.8262 9.84614 22.8262C11.3959 22.8262 12.6555 21.5436 12.6555 19.9655C12.6555 19.3437 12.4529 18.7387 12.0914 18.2451H16.5026C16.136 18.7409 15.938 19.3449 15.9386 19.9655C15.9386 21.5436 17.1981 22.8262 18.7479 22.8262C20.2977 22.8262 21.5573 21.5436 21.5573 19.9655C21.5573 19.3437 21.3547 18.7387 20.9932 18.2451H24.0956C24.6268 18.2451 25.0622 17.8046 25.0622 17.2609C25.0606 17.0001 24.9578 16.7506 24.7762 16.5667C24.5946 16.3829 24.3489 16.2796 24.0928 16.2794ZM7.19285 3.76313L22.9592 3.8161L21.4149 12.6213L9.03016 12.6436L7.19285 3.76313ZM9.84614 20.8465C9.36969 20.8465 8.98087 20.4506 8.98087 19.9655C8.98087 19.4803 9.36969 19.0844 9.84614 19.0844C10.3226 19.0844 10.7114 19.4803 10.7114 19.9655C10.7114 20.1991 10.6202 20.4233 10.458 20.5885C10.2957 20.7537 10.0756 20.8465 9.84614 20.8465ZM18.7479 20.8465C18.2715 20.8465 17.8827 20.4506 17.8827 19.9655C17.8827 19.4803 18.2715 19.0844 18.7479 19.0844C19.2244 19.0844 19.6132 19.4803 19.6132 19.9655C19.6132 20.1991 19.522 20.4233 19.3598 20.5885C19.1975 20.7537 18.9774 20.8465 18.7479 20.8465Z" fill="black"/>
</svg>
